HIERARCHY
ROOT hip
{
	OFFSET	0.00  0.00  0.00 
	CHANNELS 6 Xposition Yposition Zposition Xrotation Zrotation Yrotation
	JOINT waist
	{
		OFFSET	0.000000 2.191865 -0.079388
		CHANNELS 3 Xrotation Zrotation Yrotation
		JOINT abdomen
		{
			OFFSET	0.000000 2.770984 0.119082
			CHANNELS 3 Xrotation Zrotation Yrotation
			JOINT chest
			{
				OFFSET	0.000000 2.879627 -0.290598
				CHANNELS 3 Xrotation Zrotation Yrotation
				JOINT neck
				{
					OFFSET	0.000000 12.342733 -1.613748
					CHANNELS 3 Xrotation Zrotation Yrotation
					JOINT head
					{
						OFFSET	0.000000 4.485597 1.807195
						CHANNELS 3 Xrotation Zrotation Yrotation
						End Site
						{
							OFFSET 0.000000 7.191734 2.024398
						}
					}
				}
				JOINT lCollar
				{
					OFFSET	1.858774 10.237258 -1.915852
					CHANNELS 3 Zrotation Yrotation Xrotation
					JOINT lShldr
					{
						OFFSET	6.103279 0.000102 -0.038601
						CHANNELS 3 Zrotation Yrotation Xrotation
						JOINT lForeArm
						{
							OFFSET	10.574100 -0.365985 -0.655940
							CHANNELS 3 Zrotation Yrotation Xrotation
							JOINT lHand
							{
								OFFSET	13.213392 -0.641131 0.276866
								CHANNELS 3 Zrotation Yrotation Xrotation
								JOINT lThumb1
								{
									OFFSET	1.920964 -1.225712 1.722395
									CHANNELS 3 Zrotation Yrotation Xrotation
									JOINT lThumb2
									{
										OFFSET	0.248544 -0.143036 0.768265
										CHANNELS 3 Zrotation Yrotation Xrotation
										JOINT lThumb3
										{
											OFFSET	0.628484 -0.225174 0.508305
											CHANNELS 3 Zrotation Yrotation Xrotation
											End Site
											{
												OFFSET 0.831712 -0.207978 0.609962
											}
										}
									}
								}
								JOINT lIndex1
								{
									OFFSET	5.093442 -0.710319 1.829884
									CHANNELS 3 Zrotation Yrotation Xrotation
									JOINT lIndex2
									{
										OFFSET	0.889470 -0.051998 0.127073
										CHANNELS 3 Zrotation Yrotation Xrotation
										JOINT lIndex3
										{
											OFFSET	0.889570 -0.155981 0.127073
											CHANNELS 3 Zrotation Yrotation Xrotation
											End Site
											{
												OFFSET 0.797115 -0.294470 0.076252
											}
										}
									}
								}
								JOINT lMid1
								{
									OFFSET	5.154641 -0.519844 0.864111
									CHANNELS 3 Zrotation Yrotation Xrotation
									JOINT lMid2
									{
										OFFSET	0.928821 -0.051992 0.050831
										CHANNELS 3 Zrotation Yrotation Xrotation
										JOINT lMid3
										{
											OFFSET	0.984253 -0.311865 0.050831
											CHANNELS 3 Zrotation Yrotation Xrotation
											End Site
											{
												OFFSET 0.779717 -0.606438 -0.050831
											}
										}
									}
								}
								JOINT lRing1
								{
									OFFSET	4.924408 -0.754930 -0.235503
									CHANNELS 3 Zrotation Yrotation Xrotation
									JOINT lRing2
									{
										OFFSET	0.981624 -0.036924 -0.108278
										CHANNELS 3 Zrotation Yrotation Xrotation
										JOINT lRing3
										{
											OFFSET	0.805613 -0.205247 -0.041717
											CHANNELS 3 Zrotation Yrotation Xrotation
											End Site
											{
												OFFSET 0.667431 -0.470481 -0.035991
											}
										}
									}
								}
								JOINT lPinky1
								{
									OFFSET	4.535460 -0.816635 -1.006206
									CHANNELS 3 Zrotation Yrotation Xrotation
									JOINT lPinky2
									{
										OFFSET	0.690596 -0.064334 -0.168800
										CHANNELS 3 Zrotation Yrotation Xrotation
										JOINT lPinky3
										{
											OFFSET	0.598039 -0.111176 -0.071973
											CHANNELS 3 Zrotation Yrotation Xrotation
											End Site
											{
												OFFSET 0.422025 -0.290925 -0.035981
											}
										}
									}
								}
							}
						}
					}
				}
				JOINT rCollar
				{
					OFFSET	-1.858774 10.237258 -1.915852
					CHANNELS 3 Zrotation Yrotation Xrotation
					JOINT rShldr
					{
						OFFSET	-6.103279 0.000102 -0.038601
						CHANNELS 3 Zrotation Yrotation Xrotation
						JOINT rForeArm
						{
							OFFSET	-10.574100 -0.365985 -0.655940
							CHANNELS 3 Zrotation Yrotation Xrotation
							JOINT rHand
							{
								OFFSET	-13.213392 -0.641131 0.276866
								CHANNELS 3 Zrotation Yrotation Xrotation
								JOINT rIndex1
								{
									OFFSET	-5.093442 -0.710319 1.829884
									CHANNELS 3 Zrotation Yrotation Xrotation
									JOINT rIndex2
									{
										OFFSET	-0.889470 -0.051998 0.127073
										CHANNELS 3 Zrotation Yrotation Xrotation
										JOINT rIndex3
										{
											OFFSET	-0.889570 -0.155981 0.127073
											CHANNELS 3 Zrotation Yrotation Xrotation
											End Site
											{
												OFFSET -0.797115 -0.294470 0.076252
											}
										}
									}
								}
								JOINT rThumb1
								{
									OFFSET	-1.920964 -1.225712 1.722395
									CHANNELS 3 Zrotation Yrotation Xrotation
									JOINT rThumb2
									{
										OFFSET	-0.248544 -0.143036 0.768265
										CHANNELS 3 Zrotation Yrotation Xrotation
										JOINT rThumb3
										{
											OFFSET	-0.628484 -0.225174 0.508305
											CHANNELS 3 Zrotation Yrotation Xrotation
											End Site
											{
												OFFSET -0.831712 -0.207978 0.609962
											}
										}
									}
								}
								JOINT rMid1
								{
									OFFSET	-5.154641 -0.519844 0.864111
									CHANNELS 3 Zrotation Yrotation Xrotation
									JOINT rMid2
									{
										OFFSET	-0.928821 -0.051992 0.050831
										CHANNELS 3 Zrotation Yrotation Xrotation
										JOINT rMid3
										{
											OFFSET	-0.984253 -0.311865 0.050831
											CHANNELS 3 Zrotation Yrotation Xrotation
											End Site
											{
												OFFSET -0.779717 -0.606438 -0.050831
											}
										}
									}
								}
								JOINT rRing1
								{
									OFFSET	-4.924408 -0.754930 -0.235503
									CHANNELS 3 Zrotation Yrotation Xrotation
									JOINT rRing2
									{
										OFFSET	-0.981624 -0.036924 -0.108278
										CHANNELS 3 Zrotation Yrotation Xrotation
										JOINT rRing3
										{
											OFFSET	-0.805613 -0.205247 -0.041717
											CHANNELS 3 Zrotation Yrotation Xrotation
											End Site
											{
												OFFSET -0.667431 -0.470481 -0.035991
											}
										}
									}
								}
								JOINT rPinky1
								{
									OFFSET	-4.535460 -0.816635 -1.006206
									CHANNELS 3 Zrotation Yrotation Xrotation
									JOINT rPinky2
									{
										OFFSET	-0.690596 -0.064334 -0.168800
										CHANNELS 3 Zrotation Yrotation Xrotation
										JOINT rPinky3
										{
											OFFSET	-0.598039 -0.111176 -0.071973
											CHANNELS 3 Zrotation Yrotation Xrotation
											End Site
											{
												OFFSET -0.422025 -0.290925 -0.035981
											}
										}
									}
								}
							}
						}
					}
				}
			}
		}
	}
	JOINT lThigh
	{
		OFFSET	5.761895 -0.730553 0.000101
		CHANNELS 3 Xrotation Zrotation Yrotation
		JOINT lShin
		{
			OFFSET	-1.171020 -18.459274 1.627449
			CHANNELS 3 Xrotation Zrotation Yrotation
			JOINT lFoot
			{
				OFFSET	-0.883715 -16.872776 -3.357785
				CHANNELS 3 Xrotation Zrotation Yrotation
				JOINT lToe
				{
					OFFSET	1.287613 -2.778491 2.836049
					CHANNELS 3 Xrotation Yrotation Zrotation
					End Site
					{
						OFFSET 1.362641 -0.436631 3.828194
					}
				}
			}
		}
	}
	JOINT rThigh
	{
		OFFSET	-5.761895 -0.730553 0.000101
		CHANNELS 3 Xrotation Zrotation Yrotation
		JOINT rShin
		{
			OFFSET	1.171020 -18.459274 1.627449
			CHANNELS 3 Xrotation Zrotation Yrotation
			JOINT rFoot
			{
				OFFSET	0.883715 -16.872776 -3.357785
				CHANNELS 3 Xrotation Zrotation Yrotation
				JOINT rToe
				{
					OFFSET	-1.287613 -2.778491 2.836049
					CHANNELS 3 Xrotation Yrotation Zrotation
					End Site
					{
						OFFSET -1.362641 -0.436631 3.828194
					}
				}
			}
		}
	}
}
MOTION
Frames:     5
Frame Time: 0.033333
-16.056553 39.541550 -18.108999 2.582094 -1.783277 -42.352795 -9.412172 4.585635 -0.196089 -4.208979 -0.057604 -0.010735 27.341469 3.893358 -12.561905 20.977816 10.934044 -19.494476 0.614851 10.775333 -16.868103 3.464600 -6.396098 1.683623 -62.194839 -16.666964 10.890082 -4.773411 -33.526768 28.013411 -0.976433 -0.436522 -2.245597 8.255434 23.580488 15.850295 -1.034449 -19.649366 -5.354181 -2.514608 8.150583 4.301604 -5.686847 -9.625577 0.233405 5.883209 -2.472511 -1.280752 5.744338 -4.277841 -2.137437 -3.443265 -3.578050 -0.021711 6.911311 1.287189 0.036950 17.386042 -7.508283 -4.738703 -8.794456 0.895098 -0.804349 10.993687 5.607616 1.990171 23.426367 -1.557530 0.198841 -12.750822 -4.125401 -3.890510 4.022433 13.052223 2.891526 29.040548 -4.426017 -0.496551 1.772383 4.414166 2.627102 66.890129 2.073448 9.974673 2.674956 34.684643 37.174393 -0.656373 4.484079 -2.809399 5.349877 9.560308 0.190889 -5.912530 2.491510 -1.284422 -5.793149 4.286308 -2.142446 -8.309710 -23.715349 15.317847 1.065510 19.624640 -5.310669 2.526556 -8.138927 4.322960 3.257324 3.500277 -0.026989 -6.930302 -1.230895 0.020389 -17.426575 7.525548 -4.747852 8.794728 -0.905025 -0.804504 -10.983519 -5.588184 1.985697 -23.454935 1.504865 0.241236 12.768093 4.228670 -3.879047 -3.953623 -13.072432 2.885588 -0.010453 -0.013569 -0.002478 -18.656113 8.664305 13.452533 20.050817 8.327853 28.154247 0.583055 2.574061 -1.998557 4.782079 9.476110 -0.587361 -17.608801 -5.466040 -14.080399 20.672508 -7.781301 -26.626505 11.557543 -8.200173 -83.566742 8.965100 -10.202638 1.892968 
-16.664427 40.067036 -18.612425 2.411434 -2.382308 -44.332310 -9.412172 4.585635 -0.196089 -4.208979 -0.057604 -0.010735 28.278488 5.669489 -12.054209 20.685860 10.807348 -19.657942 0.241593 10.327028 -16.950357 3.347390 -6.317942 1.702415 -61.866291 -13.952758 9.110911 -5.126393 -31.248804 28.002083 -1.133185 -0.698548 -2.270630 -0.018104 -0.003944 -0.010280 -0.015681 -0.006574 -0.010607 -0.015424 -0.007546 -0.010088 -5.686847 -9.625577 0.233405 5.883209 -2.472511 -1.280752 5.744338 -4.277841 -2.137437 -3.443265 -3.578050 -0.021711 6.911311 1.287189 0.036950 17.386042 -7.508283 -4.738703 -8.794456 0.895098 -0.804349 10.993687 5.607616 1.990171 23.426367 -1.557530 0.198841 -12.750822 -4.125401 -3.890510 4.022433 13.052223 2.891526 29.040548 -4.426017 -0.496551 1.625777 4.462950 2.598743 66.013298 2.501698 8.536649 2.578315 36.311527 35.853596 -0.583321 3.815572 -2.723120 5.349877 9.560308 0.190889 -5.912530 2.491510 -1.284422 -5.793149 4.286308 -2.142446 -0.001427 -0.010679 0.002670 -0.003851 -0.011809 -0.004022 -0.004104 -0.011405 -0.005351 3.257324 3.500277 -0.026989 -6.930302 -1.230895 0.020389 -17.426575 7.525548 -4.747852 8.794728 -0.905025 -0.804504 -10.983519 -5.588184 1.985697 -23.454935 1.504865 0.241236 12.768093 4.228670 -3.879047 -3.953623 -13.072432 2.885588 -0.010453 -0.013569 -0.002478 -18.625431 9.944945 14.030187 21.894611 8.497808 29.204924 -0.116298 3.720773 -2.004409 4.782079 9.476110 -0.587361 -17.792603 -4.663683 -13.773054 21.306744 -7.662680 -25.028767 11.759860 -7.007229 -83.421814 8.965100 -10.202638 1.892968 
-17.233732 39.876789 -19.130428 2.315812 -3.224014 -46.500301 -9.412172 4.585635 -0.196089 -4.208979 -0.057604 -0.010735 29.698389 7.969362 -11.372781 20.318233 10.609307 -19.762518 -0.352295 9.735683 -16.963732 3.298485 -6.259334 1.721629 -62.295483 -11.151114 8.078732 -5.235742 -28.921673 28.249376 -1.319348 -1.096303 -2.311119 -0.018104 -0.003944 -0.010280 -0.015681 -0.006574 -0.010607 -0.015424 -0.007546 -0.010088 -5.686847 -9.625577 0.233405 5.883209 -2.472511 -1.280752 5.744338 -4.277841 -2.137437 -3.443265 -3.578050 -0.021711 6.911311 1.287189 0.036950 17.386042 -7.508283 -4.738703 -8.794456 0.895098 -0.804349 10.993687 5.607616 1.990171 23.426367 -1.557530 0.198841 -12.750822 -4.125401 -3.890510 4.022433 13.052223 2.891526 29.040548 -4.426017 -0.496551 1.479229 4.521499 2.580154 64.671844 3.137139 6.526293 2.749156 38.276062 33.564304 -0.460459 2.652926 -2.574363 5.349877 9.560308 0.190889 -5.912530 2.491510 -1.284422 -5.793149 4.286308 -2.142446 -0.001427 -0.010679 0.002670 -0.003851 -0.011809 -0.004022 -0.004104 -0.011405 -0.005351 3.257324 3.500277 -0.026989 -6.930302 -1.230895 0.020389 -17.426575 7.525548 -4.747852 8.794728 -0.905025 -0.804504 -10.983519 -5.588184 1.985697 -23.454935 1.504865 0.241236 12.768093 4.228670 -3.879047 -3.953623 -13.072432 2.885588 -0.010453 -0.013569 -0.002478 -18.706936 11.450939 14.712957 24.357317 8.724716 30.208996 -0.848970 5.125648 -2.083369 4.782079 9.476110 -0.587361 -18.063160 -3.631562 -13.260760 22.387936 -7.613473 -23.529697 11.982066 -6.117074 -83.282883 8.965100 -10.202638 1.892968 
-17.717596 39.656830 -19.631731 2.193667 -4.110282 -49.116043 -9.412172 4.585635 -0.196089 -4.208979 -0.057604 -0.010735 31.793053 10.474104 -10.375705 19.601784 10.316033 -19.786860 -0.984057 8.957391 -16.844398 3.259403 -6.190964 1.731135 -63.440678 -8.457583 7.793261 -5.109550 -26.744425 28.845352 -1.476053 -1.629672 -2.369673 -0.018104 -0.003944 -0.010280 -0.015681 -0.006574 -0.010607 -0.015424 -0.007546 -0.010088 -5.686847 -9.625577 0.233405 5.883209 -2.472511 -1.280752 5.744338 -4.277841 -2.137437 -3.443265 -3.578050 -0.021711 6.911311 1.287189 0.036950 17.386042 -7.508283 -4.738703 -8.794456 0.895098 -0.804349 10.993687 5.607616 1.990171 23.426367 -1.557530 0.198841 -12.750822 -4.125401 -3.890510 4.022433 13.052223 2.891526 29.040548 -4.426017 -0.496551 1.479126 4.658220 2.570439 62.522312 4.294503 4.132101 3.043199 39.906353 31.277750 -0.340869 1.625948 -2.441987 5.349877 9.560308 0.190889 -5.912530 2.491510 -1.284422 -5.793149 4.286308 -2.142446 -0.001427 -0.010679 0.002670 -0.003851 -0.011809 -0.004022 -0.004104 -0.011405 -0.005351 3.257324 3.500277 -0.026989 -6.930302 -1.230895 0.020389 -17.426575 7.525548 -4.747852 8.794728 -0.905025 -0.804504 -10.983519 -5.588184 1.985697 -23.454935 1.504865 0.241236 12.768093 4.228670 -3.879047 -3.953623 -13.072432 2.885588 -0.010453 -0.013569 -0.002478 -18.945652 12.971120 15.318971 27.330597 9.069091 30.521381 -1.436563 6.736791 -3.349207 4.782079 9.476110 -0.587361 -18.435064 -2.651233 -12.679089 23.728888 -7.677365 -21.979078 12.256127 -5.463939 -83.398598 8.965100 -10.202638 1.892968 
-18.079481 39.436707 -20.080902 1.944638 -4.845303 -52.304970 -9.412172 4.585635 -0.196089 -4.208979 -0.057604 -0.010735 34.664719 12.717499 -9.012211 18.285980 9.994465 -19.750240 -1.386659 8.030456 -16.565744 3.249610 -6.064006 1.740800 -65.113258 -6.103638 8.265830 -4.805670 -24.904062 29.836945 -1.573505 -2.317998 -2.450020 -0.018104 -0.003944 -0.010280 -0.015681 -0.006574 -0.010607 -0.015424 -0.007546 -0.010088 -5.686847 -9.625577 0.233405 5.883209 -2.472511 -1.280752 5.744338 -4.277841 -2.137437 -3.443265 -3.578050 -0.021711 6.911311 1.287189 0.036950 17.386042 -7.508283 -4.738703 -8.794456 0.895098 -0.804349 10.993687 5.607616 1.990171 23.426367 -1.557530 0.198841 -12.750822 -4.125401 -3.890510 4.022433 13.052223 2.891526 29.040548 -4.426017 -0.496551 1.674256 4.892663 2.569300 59.436111 6.205727 1.422968 3.291090 40.630665 29.673759 -0.213695 0.947901 -2.352598 5.349877 9.560308 0.190889 -5.912530 2.491510 -1.284422 -5.793149 4.286308 -2.142446 -0.001427 -0.010679 0.002670 -0.003851 -0.011809 -0.004022 -0.004104 -0.011405 -0.005351 3.257324 3.500277 -0.026989 -6.930302 -1.230895 0.020389 -17.426575 7.525548 -4.747852 8.794728 -0.905025 -0.804504 -10.983519 -5.588184 1.985697 -23.454935 1.504865 0.241236 12.768093 4.228670 -3.879047 -3.953623 -13.072432 2.885588 -0.010453 -0.013569 -0.002478 -19.338448 14.264025 15.695817 30.561554 9.573376 29.253145 -1.793772 8.471538 -7.044363 4.782079 9.476110 -0.587361 -18.978910 -1.968010 -12.065206 25.144806 -7.858652 -20.063580 12.576766 -5.076407 -83.705803 8.965100 -10.202638 1.892968 
